<?xml version="1.0" encoding="utf-8"?>
<!-- Svg Vector Icons : http://www.onlinewebfonts.com/icon -->
<!DOCTYPE svg PUBLIC "-//W3C//DTD SVG 1.1//EN" "http://www.w3.org/Graphics/SVG/1.1/DTD/svg11.dtd">
<svg version="1.1" xmlns="http://www.w3.org/2000/svg" xmlns:xlink="http://www.w3.org/1999/xlink" x="0px" y="0px" viewBox="0 0 1000 1000" enable-background="new 0 0 1000 1000" xml:space="preserve">
<metadata> Svg Vector Icons : http://www.onlinewebfonts.com/icon </metadata>
<g><path d="M972,887.5L676.9,590.6c42.7-60.4,68.1-134.1,68.1-213.9C745,172.7,580.4,7.2,377.5,7.2C174.5,7.2,10,172.7,10,376.8s164.5,369.6,367.5,369.6c79.3,0,152.6-25.5,212.6-68.5l295.1,296.8c12,12,27.7,18.1,43.4,18.1c15.7,0,31.4-6,43.4-18.1C996,950.7,996,911.6,972,887.5z M577.1,519.2L553,553.3l-33.9,24.2c-41.8,29.9-90.7,45.7-141.6,45.7c-135.1,0-245-110.5-245-246.4c0-135.9,109.9-246.4,245-246.4c135.1,0,245,110.5,245,246.4C622.5,428,606.8,477.2,577.1,519.2z"/></g>
</svg>