<?xml version="1.0" encoding="UTF-8" standalone="no"?>
<svg
   xmlns:dc="http://purl.org/dc/elements/1.1/"
   xmlns:cc="http://creativecommons.org/ns#"
   xmlns:rdf="http://www.w3.org/1999/02/22-rdf-syntax-ns#"
   xmlns:svg="http://www.w3.org/2000/svg"
   xmlns="http://www.w3.org/2000/svg"
   xmlns:sodipodi="http://sodipodi.sourceforge.net/DTD/sodipodi-0.dtd"
   xmlns:inkscape="http://www.inkscape.org/namespaces/inkscape"
   version="1.1"
   x="0px"
   y="0px"
   viewBox="0 0 1000 1000"
   enable-background="new 0 0 1000 1000"
   xml:space="preserve"
   id="svg8"
   sodipodi:docname="magnifying-glass-white.svg"
   inkscape:version="1.0.2 (e86c870879, 2021-01-15)"><defs
   id="defs12" /><sodipodi:namedview
   pagecolor="#ffffff"
   bordercolor="#666666"
   borderopacity="1"
   objecttolerance="10"
   gridtolerance="10"
   guidetolerance="10"
   inkscape:pageopacity="0"
   inkscape:pageshadow="2"
   inkscape:window-width="1198"
   inkscape:window-height="830"
   id="namedview10"
   showgrid="false"
   inkscape:zoom="1.008"
   inkscape:cx="309.02778"
   inkscape:cy="500"
   inkscape:window-x="26"
   inkscape:window-y="23"
   inkscape:window-maximized="0"
   inkscape:current-layer="svg8"
   inkscape:document-rotation="0" />
<metadata
   id="metadata2"> Svg Vector Icons : http://www.onlinewebfonts.com/icon <rdf:RDF><cc:Work
     rdf:about=""><dc:format>image/svg+xml</dc:format><dc:type
       rdf:resource="http://purl.org/dc/dcmitype/StillImage" /><dc:title></dc:title></cc:Work></rdf:RDF></metadata>
<g
   id="g6"><path
     d="M972,887.5L676.9,590.6c42.7-60.4,68.1-134.1,68.1-213.9C745,172.7,580.4,7.2,377.5,7.2C174.5,7.2,10,172.7,10,376.8s164.5,369.6,367.5,369.6c79.3,0,152.6-25.5,212.6-68.5l295.1,296.8c12,12,27.7,18.1,43.4,18.1c15.7,0,31.4-6,43.4-18.1C996,950.7,996,911.6,972,887.5z M577.1,519.2L553,553.3l-33.9,24.2c-41.8,29.9-90.7,45.7-141.6,45.7c-135.1,0-245-110.5-245-246.4c0-135.9,109.9-246.4,245-246.4c135.1,0,245,110.5,245,246.4C622.5,428,606.8,477.2,577.1,519.2z"
     id="path4"
     style="fill:#ffffff" /></g>
</svg>
