<?xml version="1.0" encoding="UTF-8" standalone="no"?>
<svg
   xmlns:dc="http://purl.org/dc/elements/1.1/"
   xmlns:cc="http://creativecommons.org/ns#"
   xmlns:rdf="http://www.w3.org/1999/02/22-rdf-syntax-ns#"
   xmlns:svg="http://www.w3.org/2000/svg"
   xmlns="http://www.w3.org/2000/svg"
   xmlns:sodipodi="http://sodipodi.sourceforge.net/DTD/sodipodi-0.dtd"
   xmlns:inkscape="http://www.inkscape.org/namespaces/inkscape"
   version="1.1"
   x="0px"
   y="0px"
   viewBox="0 0 1000 1000"
   enable-background="new 0 0 1000 1000"
   xml:space="preserve"
   id="svg8"
   sodipodi:docname="moon-filled-white.svg"
   inkscape:version="1.0.2 (e86c870879, 2021-01-15)"><defs
   id="defs12" /><sodipodi:namedview
   pagecolor="#ffffff"
   bordercolor="#666666"
   borderopacity="1"
   objecttolerance="10"
   gridtolerance="10"
   guidetolerance="10"
   inkscape:pageopacity="0"
   inkscape:pageshadow="2"
   inkscape:window-width="1399"
   inkscape:window-height="925"
   id="namedview10"
   showgrid="false"
   inkscape:zoom="1.008"
   inkscape:cx="500"
   inkscape:cy="500"
   inkscape:window-x="26"
   inkscape:window-y="23"
   inkscape:window-maximized="0"
   inkscape:current-layer="svg8" />
<metadata
   id="metadata2"> Svg Vector Icons : http://www.onlinewebfonts.com/icon <rdf:RDF><cc:Work
     rdf:about=""><dc:format>image/svg+xml</dc:format><dc:type
       rdf:resource="http://purl.org/dc/dcmitype/StillImage" /><dc:title></dc:title></cc:Work></rdf:RDF></metadata>
<g
   id="g6"><path
     d="m 981.5,621.1 c -7.9,-8 -19.6,-10.6 -30.3,-7.1 -46.5,15.8 -94.5,23.8 -142.5,23.8 -245,0 -444.4,-199.3 -444.4,-444.3 0,-48.8 8.3,-97.5 24.7,-144.9 3.6,-10.6 1,-22.4 -6.9,-30.3 -7.9,-8 -19.6,-10.7 -30.3,-7.1 C 147.3,80.4 10,271.7 10,487.3 c 0,277.4 225.7,503.2 503.1,503.2 214.3,0 405.2,-136.2 475.3,-339.1 3.6,-10.6 1,-22.4 -6.9,-30.3 z"
     id="path4"
     sodipodi:nodetypes="ccsscccsscc"
     style="fill:#ffffff" /></g>
</svg>
